<?xml version="1.0" encoding="UTF-8"?><svg id="Layer_1" xmlns="http://www.w3.org/2000/svg" viewBox="0 0 1366 768"><defs><style>.cls-1{font-size:196.6px;}.cls-1,.cls-2{font-family:MyanmarText, 'Myanmar Text';}.cls-2{font-size:75.48px;}.cls-3{fill:none;}.cls-4{font-family:MicrosoftJhengHeiUILight, 'Microsoft JhengHei UI';font-size:149.42px;}</style></defs><g><path class="cls-3" d="M219.83,229.32c-12.08,9.86-44.86,39.41-39.28,94.72,32.6-24.45,55.56-49.57,39.28-94.72Z"/><path class="cls-3" d="M175.6,403.22c-11.19,5.97-16.95,25.47-6.33,41.27-16.41-16.91-16.58-33.69-11.76-44.96,2.87-6.71,11.49-14.2,21.98-17.52-1.67-13.94-3.12-24.87-3.67-29.49-.04-.3-.08-.62-.12-.96-29.97,20.89-52.81,40.4-49.89,61.15,4.44,31.51,21.08,44.38,39.17,45.31,5.82,.3,13.84-.63,21.52-3.22-.99-16.85-2.86-36.12-4.78-53.5-2.18,.31-4.25,.94-6.12,1.93Z"/><path class="cls-3" d="M189.43,401.53c2.23,22.48,3.64,39.86,4.45,49.94,0,.07,.01,.14,.02,.22,8.97-4.64,16.13-12.08,16.56-23.15,.6-15.4-10.1-24.88-21.02-27.01Z"/><path d="M209.36,386.7c-7.05-5.35-14.78-6.97-22.12-6.29-1.15-10.63-2.45-22.06-3.92-34.11,6.11-4.16,12.44-8.39,18.84-12.7,42.64-28.7,29.03-99.74,19.33-119.08-47.43,27.43-50.47,82.19-48.21,114.86-13.74,9.93-28.72,19.98-42.96,31.45-24.5,19.73-21.96,54.24-15.33,70.75,6.15,15.32,34.08,43.19,71.99,33.1,.55,14.66,.18,26.45-1.81,31.85-7.33,19.89-31.23,18.7-35.73,12.35,10.68,1.31,18.77-10.41,17.83-19.12-1.27-11.65-12.51-18.46-21.12-16.57-9.53,2.09-17.25,11.7-15.68,25.65,1.57,13.95,22.71,25.09,45.93,16.85,19.43-6.89,19.66-33.65,18.31-53.55,.43-.17,.86-.34,1.29-.51,42.45-17.57,32.34-60.5,13.35-74.92Zm10.47-157.38c16.28,45.15-6.68,70.27-39.28,94.72-5.58-55.31,27.2-84.86,39.28-94.72Zm-54.84,228.69c-18.09-.93-34.73-13.79-39.17-45.31-2.93-20.76,19.92-40.26,49.89-61.15,.04,.34,.08,.66,.12,.96,.56,4.62,2,15.56,3.67,29.49-10.49,3.32-19.11,10.81-21.98,17.52-4.82,11.27-4.65,28.05,11.76,44.96-10.62-15.8-4.86-35.3,6.33-41.27,1.86-.99,3.94-1.63,6.12-1.93,1.92,17.38,3.8,36.65,4.78,53.5-7.68,2.58-15.7,3.52-21.52,3.22Zm45.47-29.47c-.43,11.06-7.59,18.5-16.56,23.15,0-.07-.01-.15-.02-.22-.81-10.08-2.22-27.46-4.45-49.94,10.92,2.13,21.62,11.61,21.02,27.01Z"/></g><text transform="translate(251.27 294.77)"><tspan class="cls-2"><tspan x="0" y="0">The</tspan></tspan><tspan><tspan class="cls-1" x="0" y="154.47">Vis</tspan><tspan class="cls-4" x="253.14" y="154.47">Ensemble</tspan></tspan></text></svg>